<mxfile host="app.diagrams.net" modified="2023-06-19T08:23:47.045Z" agent="Mozilla/5.0 (Windows NT 10.0; Win64; x64) AppleWebKit/537.36 (KHTML, like Gecko) Chrome/114.0.0.0 Safari/537.36" version="21.5.0" etag="hiLDayKmFq5rPW_rNQGO" type="github">
  <diagram name="Page-1" id="8Iy06SS19FX1Xoy_Xd2h">
    <mxGraphModel>
      <root>
        <mxCell id="0" />
        <mxCell id="1" parent="0" />
      </root>
    </mxGraphModel>
  </diagram>
</mxfile>
